<svg id="b28413ca-484e-43de-b39e-573fb3772be7" data-name="图层 1" xmlns="http://www.w3.org/2000/svg" viewBox="0 0 537.14344 579.17934"><path d="M173.52251,331.87393c-16.6112-1.21309-32.22622-1.89119-47.72543-3.596-21.97275-2.41693-43.70187-5.707-64.81064-13.14444-40.17642-14.15555-45.27774-57.79638-25.6071-85.523,9.49924-13.38955,22.04-22.15,37.38677-27.34215,3.31369-1.12108,4.039-2.76605,4.14154-6.02555q1.18624-37.70642,2.86026-75.397a81.18436,81.18436,0,0,1,2.1033-13.61466c.33426-1.53171,1.858-2.81026,2.83826-4.20451q.991.06582,1.98205.13158c5.166,30.35826,10.33206,60.71652,15.56809,91.48614,5.375.69854,11.23172,1.45974,17.0885,2.2209l.17422,1.74573c-4.38775,3.09141-8.65191,6.37741-13.20975,9.201-2.71826,1.684-3.50476,3.57417-2.75772,6.51737,2.70856,10.6714,5.24195,21.38671,8.01487,32.04141,2.8117,10.80383,5.94006,21.52776,8.71212,32.34105,1.54029,6.00852,4.63608,8.99536,11.36393,9.861,10.50695,1.35179,20.81719,4.19493,31.7922,6.52985-1.9585-7.54288-3.65323-15.27756-5.99283-22.8171-4.22729-13.62291-9.27-27.0094-13.18591-40.71372-5.27252-18.452-9.97861-36.95347-10.87631-56.40474-.70325-15.23851-5.55817-29.937-12.6348-43.68272-5.56818-10.81567-11.66366-21.38632-16.75751-32.4116a42.64289,42.64289,0,0,1-4.00454-16.50388c-.42432-20.23319,5.92263-38.83645,15.75644-56.36806.73318-1.3071,2.249-2.1861,3.401-3.26411l1.3666.75437c-.76834,4.11665-2.10461,8.2208-2.19781,12.35228-.273,12.09834-1.179,24.34709.33279,36.26853a90.63774,90.63774,0,0,0,8.86545,28.05572c4.07123,8.264,10.39505,15.515,16.20557,22.8422,2.54492,3.20923,5.70425,2.16923,6.85153-1.98667,1.04416-3.78246,1.30789-7.76792,2.185-11.60382,2.63043-11.50372,5.328-22.99366,8.165-34.449a11.74425,11.74425,0,0,1,3.66592-5.54247c.68137,5.175,1.37305,10.34879,2.042,15.52539,1.49283,11.55207,3.41815,23.073,4.29154,34.67091.51205,6.79985.44815,14.00832-1.27555,20.539-5.68582,21.54207-3.45608,42.758,1.47873,63.88163,4.6171,19.76374,10.40293,39.26808,14.741,59.08586,2.67392,12.21538,4.89291,24.41478,10.65561,35.69759,5.20819,10.19715,11.361,19.14474,23.1159,23.17668,11.44507,3.92567,22.60956,8.64871,33.90043,13.01361a23.97869,23.97869,0,0,1,3.25631,1.186c19.41706,11.041,40.36652,9.77693,60.63858,4.93888,14.6604-3.49873,28.08338-11.7652,42.53473-16.48118,17.673-5.76727,26.9784-18.47064,32.6015-34.61862,2.73395-7.851,4.08863-16.16727,6.13-24.25755,2.44348-9.68434,5.12811-19.31257,7.39618-29.03607,3.94561-16.91493,8.12243-33.79837,11.31707-50.85668a101.01092,101.01092,0,0,0-1.673-44.9389c-3.01306-11.35168-1.411-22.78895.2337-34.22631,1.55744-10.83059,2.48151-21.74936,3.748-32.62207A9.69215,9.69215,0,0,1,421.92,69.24841c1.9038,4.97168,4.41638,9.80833,5.584,14.94327,2.4021,10.56388,4.08032,21.28814,6.0694,31.944.27106,1.45209.5321,2.91445.94226,4.33124,1.52191,5.25694,4.14838,5.97106,8.01623,1.9817,11.31482-11.67026,17.93476-25.64372,22.21643-41.2194,4.98957-18.15087,3.52308-36.0508.69263-54.12628a25.81632,25.81632,0,0,1-.32855-2.89917c-.00983-.23319.39062-.48326,1.11285-1.30969,1.09619,1.0208,2.51288,1.83294,3.19068,3.04734,10.21142,18.29621,16.57086,37.64249,16.00018,58.80532-.29248,10.84652-6.17065,19.69215-11.282,28.59857-8.89807,15.50453-16.83747,31.35047-20.18353,48.95891-1.7381,9.14623-1.93091,18.56792-3.324,27.79122-3.04535,20.16319-8.60419,39.67543-15.37811,58.94774-5.26935,14.9917-9.24219,30.42785-13.94116,46.16869a14.30927,14.30927,0,0,0,2.39685-.01585c11.67266-2.59652,23.36035-5.13433,34.98254-7.93676,1.57275-.37919,3.62579-1.85816,4.07373-3.25913q4.947-15.47067,9.25885-31.13761c3.20581-11.73385,5.93659-23.59466,9.16919-35.32089,1.402-5.08575.66351-8.62972-4.40161-11.29806-3.89166-2.05015-7.30158-4.99214-10.92572-7.53752q-.01135-.83628-.02283-1.67263c5.82977-.82678,11.65949-1.65356,17.22174-2.44237q7.75937-45.72445,15.48529-91.25145l2.31757-.33715c.92956,1.96106,2.44922,3.85439,2.68933,5.89456,1.20734,10.25975,2.47668,20.53878,2.98486,30.84659.923,18.72127,1.42066,37.4655,1.85266,56.20563.07813,3.39078.8006,5.16477,4.33454,6.36855,24.81885,8.454,41.40143,25.06633,47.11078,50.473,4.38562,19.51612-.42975,37.8637-15.88587,51.2092-9.95526,8.59579-22.91919,13.31418-35.96991,16.34517-22.71,5.27436-45.67822,8.75652-69.10516,9.18725-8.74591.16082-17.46393,1.79753-26.88257,2.83721,3.488,4.12274,6.53107,7.52286,9.35394,11.09288,8.61347,10.89324,14.10974,22.924,14.14472,37.08105.02423,9.82979-4.01471,17.55474-11.793,23.32432-6.91449,5.12885-14.51727,9.40334-21.13739,14.85846a152.86318,152.86318,0,0,0-38.06873,47.226c-12.33441,23.47857-23.38873,47.62252-34.6134,71.65334a72.69277,72.69277,0,0,0-5.38251,17.92315c-2.43908,13.71562-8.92682,25.36076-17.38562,36.16262-.91681,1.17087-1.95593,2.25331-2.81659,3.46131-4.56057,6.40085-9.89428,8.29033-17.4252,5.96409a6.34777,6.34777,0,0,1-3.30115-1.97983c-5.69238-8.47129-11.65521-16.81093-16.64407-25.68a56.51606,56.51606,0,0,1-5.5538-16.22975c-3.387-16.47506-10.04376-31.75582-17.6019-46.57727-10.24875-20.09761-20.57159-40.25128-32.46436-59.41124-10.93261-17.61314-25.23672-32.622-43.77416-43.19306-18.50248-10.55106-21.61295-26.04284-14.156-45.97313a78.26409,78.26409,0,0,1,8.41537-15.54109C164.94454,341.7813,168.91375,337.55765,173.52251,331.87393ZM84.459,279.57789c-1.96949-16.39032-3.9412-32.79906-6.00156-49.94549-7.61017,6.72141-12.62241,14.25715-14.78693,23.42134-.47741,2.0214.24408,4.55535,1.06388,6.5988C68.57107,269.21619,76.89349,274.44265,84.459,279.57789Zm416.3482.36114c4.32355-3.40714,9.416-6.64413,13.48914-10.84508,4.19269-4.32422,8.67212-9.41021,7.31335-15.99238-1.89856-9.19731-7.04352-16.7779-14.79449-23.34828C504.77911,246.761,502.81585,263.16026,500.80718,279.939Z" transform="translate(-24.24053 -22.8941)"/></svg>